<svg xmlns="http://www.w3.org/2000/svg" width="65" height="65" viewBox="0 0 17.198 17.198"><g style="display:inline"><path d="M4.043.433c-.256.089-.133.444-.107.634.094.677.174 1.333.174 2.018 0 .18-.032.598.278.519.246-.063.175-.436.175-.623 0-.661-.042-1.296-.148-1.949-.031-.19-.046-.712-.372-.599m9.013.003c-.206.085-.195.446-.222.63a13.07 13.07 0 0 0-.164 1.914c0 .193-.041.734.311.627.249-.075.176-.466.176-.661 0-.735.113-1.431.199-2.158.02-.179-.058-.452-.3-.352M1.224 3.18c-.308.125-.12.443.034.6.445.46.933.877 1.39 1.324.053.052.134.116.15.193.015.076-.054.162-.09.224-.105.186-.31.441-.144.653.17.217.634.3.885.397.763.296 1.532.579 2.297.87.251.096.743.401 1.005.256.284-.158.077-.48-.072-.646-.468-.521-.995-1-1.49-1.496-.075-.074-.242-.192-.242-.31 0-.09.115-.159.172-.215.135-.133.263-.331.12-.51-.17-.214-.636-.285-.885-.368-.721-.24-1.441-.488-2.157-.743-.263-.094-.692-.343-.973-.229m14.542-.007c-.355.074-.701.234-1.043.352-.58.201-1.163.388-1.74.593-.209.074-.416.15-.626.22-.123.04-.267.076-.348.185-.278.378.488.548.172.893-.536.587-1.123 1.125-1.667 1.705-.174.186-.267.577.103.615.278.028.648-.206.904-.3.734-.268 1.457-.563 2.193-.826.222-.08.44-.173.66-.256.112-.042.249-.08.323-.18.15-.202-.024-.443-.127-.619-.049-.081-.123-.178-.087-.278.076-.213.386-.427.553-.572.352-.306.73-.645 1.04-.994.246-.277.061-.616-.31-.538m-13.64.712 2.54.87c-.095.137-.304.279-.324.452-.026.217.261.424.395.557l.73.73c.151.151.327.293.418.488l-2.018-.754-.8-.29.275-.73-.276-.349-.66-.626-.28-.348m13.049 0-.94.938-.326.42.292.66-1.531.594-1.322.485c.326-.464.816-.826 1.192-1.253.213-.24.523-.45.231-.763a1.051 1.051 0 0 0-.17-.141v-.07l2.574-.87m-12.7 9.22c.504 0 1.029-.041 1.53.007 1.07.101 2.137.52 2.958 1.216.36.305.628.688.975.998.121.109.367.169.431.323.09.22.011.562.022.797.005.13.055.261.208.265.133.004.22-.11.238-.23.047-.3.005-.636.005-.94.378-.067.567-.36.807-.626a5.412 5.412 0 0 1 1.943-1.396c.21-.09.509-.122.69-.264.163-.128.123-.393-.1-.416-.232-.025-.52.134-.73.218a5.516 5.516 0 0 0-1.844 1.197c-.126.125-.256.248-.373.383-.187.215-.373.519-.706.451-.302-.06-.47-.382-.664-.59a5.522 5.522 0 0 0-1.18-.975 6.11 6.11 0 0 0-2.436-.86c-.598-.071-1.207-.044-1.809-.044l.154-1.566.264-1.01c.576.134 1.128.374 1.705.518.171.043.461.178.608.024.152-.16.014-.348-.156-.405-.295-.097-.607-.149-.905-.241-.359-.112-.713-.263-1.078-.348.14-.608.359-1.216.556-1.809.059-.175.22-.542-.037-.64-.12-.046-.235.015-.295.12-.128.223-.168.52-.248.764-.34 1.047-.74 2.115-.936 3.2a7.1 7.1 0 0 0-.006 2.471c.036.208.058.716.34.743.164.015.245-.151.236-.29-.022-.35-.152-.69-.167-1.044m11.76-3.55c-2.1.811-4.304 1.11-6.54 1.011-.538-.023-1.067-.133-1.601-.164-.153-.009-.331.089-.297.266.05.255.48.244.68.27a16.61 16.61 0 0 0 2.157.149c1.38 0 2.769-.2 4.105-.544.389-.1.768-.223 1.149-.35.112-.037.326-.16.442-.107.148.066.193.441.233.583.18.628.264 1.297.264 1.949-.48 0-.986-.047-1.461.01-.17.02-.427.036-.41.268.016.235.274.209.444.209h1.392a7.512 7.512 0 0 1-.74 2.47c-.108.216-.236.42-.362.626-.067.11-.148.246-.095.38.13.322.449-.023.543-.17.33-.521.596-1.087.793-1.671.429-1.27.451-2.666.16-3.967-.143-.636-.383-1.256-.576-1.878-.134-.43-.26-.86-.396-1.288-.045-.142-.082-.396-.236-.461-.368-.156-.316.301-.26.496.185.63.347 1.315.612 1.914M8.533 8.365c-.263.107-.184.777.168.648.306-.111.193-.796-.168-.648m-5.814 6.611c-.202.031-.216.236-.158.391.14.375.361.743.577 1.079.076.119.18.287.346.264.16-.023.23-.193.18-.334-.054-.148-.17-.282-.25-.417a9.618 9.618 0 0 1-.398-.765c-.056-.12-.147-.24-.297-.218Z" style="fill:#e793be;stroke:none;stroke-width:.0347947;fill-opacity:1"/><path d="M51.602 62.725c-.184-.342-.101-.697.347-1.499 1.448-2.589 2.078-3.95 2.725-5.893.73-2.194 1.47-5.676 1.252-5.894-.07-.07-1.615-.129-3.432-.129h-3.303v-.58c0-.818.585-.953 4.033-.933l2.959.018-.137-2.058c-.139-2.105-.987-6.482-1.409-7.276-.302-.568-.932-.481-4.49.619-5.798 1.791-11.297 2.593-17.671 2.576-4.987-.014-9.645-.475-10.178-1.008-.204-.204-.28-.522-.183-.772.143-.374.372-.408 1.859-.28 3.979.342 12.166.43 14.768.159 3.878-.405 8.307-1.319 11.813-2.437 1.68-.535 3.12-1.014 3.202-1.063.082-.049-.208-1.139-.644-2.422-1.056-3.106-1.731-5.784-1.592-6.317.13-.496.844-.578 1.182-.135.126.164.853 2.287 1.618 4.716 3.077 9.783 3.346 11.17 3.172 16.313-.126 3.707-.578 5.903-1.852 8.993-1.689 4.095-3.449 6.405-4.04 5.302zM31.991 33.538c-.35-.656-.21-1.432.32-1.754.344-.21.5-.17.776.2.418.564.445 1.37.057 1.757-.425.425-.857.349-1.153-.203zM39.56 28.854c-.088-.088-.16-.423-.16-.746 0-.431.914-1.526 3.463-4.15 3.657-3.764 3.852-4.104 2.985-5.213-.257-.328-.47-.844-.472-1.146-.007-.667-.322-.532 7.94-3.383 6.446-2.223 7.34-2.402 7.672-1.535.255.665-.736 1.888-3.569 4.401-2.991 2.655-3.116 2.901-2.233 4.398.563.954.475 1.885-.202 2.156-.231.092-2.838 1.081-5.793 2.199-2.955 1.117-5.987 2.29-6.739 2.605-1.33.558-2.57.736-2.892.414zm8.886-4.407c2.84-1.066 5.204-1.977 5.255-2.022.05-.046-.144-.633-.433-1.304-.503-1.17-.508-1.247-.114-1.858.227-.35 1.273-1.524 2.326-2.607 1.053-1.084 1.815-1.973 1.693-1.975-.569-.013-9.654 3.247-9.654 3.464 0 .136.215.38.478.545.298.186.478.557.478.987 0 .552-.465 1.16-2.329 3.045-3.076 3.113-3.554 3.664-3.174 3.664.17 0 2.634-.872 5.474-1.939zM23.043 28.569c-.525-.239-3.319-1.313-6.208-2.387-7.815-2.904-7.81-2.9-6.75-4.812.358-.647.596-1.32.53-1.496-.068-.176-1.51-1.631-3.205-3.235-1.695-1.603-3.151-3.133-3.236-3.4-.209-.66.277-1.18 1.102-1.18.375 0 1.463.31 2.419.687.955.378 3.886 1.409 6.511 2.291 2.626.882 4.963 1.705 5.194 1.829.598.32.519 1.247-.177 2.074-.329.39-.597.82-.597.956 0 .135 1.556 1.798 3.459 3.697 1.903 1.898 3.555 3.706 3.673 4.018.508 1.346-.825 1.816-2.715.958zm-.835-2.399c0-.119-1.29-1.491-2.866-3.05-1.576-1.557-2.865-3.01-2.865-3.227 0-.217.282-.73.626-1.14.345-.41.583-.789.528-.843-.228-.229-9.32-3.249-9.548-3.172-.139.046.78 1.12 2.041 2.387 1.261 1.268 2.293 2.418 2.293 2.557 0 .138-.215.817-.477 1.508-.263.691-.397 1.29-.299 1.332 1.252.531 10.047 3.819 10.268 3.838.164.015.299-.071.299-.19zM15.889 13.268c-.076-.123-.238-1.762-.36-3.642s-.347-4.247-.5-5.262c-.154-1.014-.217-2.008-.14-2.208.213-.556 1.088-.443 1.34.172.639 1.568 1.225 10.204.732 10.797-.341.412-.863.481-1.072.143zM48.142 13.114c-.385-1.003.302-9.882.844-10.905.293-.553 1.09-.535 1.27.028.077.246-.022 1.83-.221 3.522-.2 1.692-.363 3.995-.364 5.118-.002 1.267-.111 2.15-.289 2.328-.405.405-1.069.356-1.24-.091z" style="fill:#e793be;fill-opacity:1;stroke-width:.238791" transform="scale(.26458)"/><path d="M32.165 63.01c-.323-.217-.398-.648-.373-2.138.031-1.791-.042-1.982-.957-2.498-.328-.184-1.48-1.242-2.717-2.495-1.624-1.643-2.426-2.357-3.279-2.92-3.978-2.627-8.22-3.73-13.526-3.514-2.344.095-2.144-.149-1.704 2.074.162.821.296 1.72.298 2 .005.881-.738 1.296-1.282.716-.359-.383-.478-.762-.775-2.463-.356-2.04-.384-7.068-.05-8.85.546-2.905 1.141-5.066 2.76-10.02a230.67 230.67 0 0 0 1.26-3.947c.318-1.082.64-1.737.9-1.837.64-.246 1.13.1 1.13.796 0 .239-.424 1.712-.942 3.274-.93 2.804-1.552 4.996-1.443 5.078.15.112 4.742 1.547 5.81 1.815.67.168 1.368.362 1.553.432.795.302 1.125 1.04.654 1.466-.46.415-1.248.252-5.632-1.17-2.201-.714-3.104-.97-3.105-.88 0 .021-.216.845-.48 1.83-.393 1.471-.53 2.302-.773 4.656-.162 1.576-.295 2.96-.296 3.075-.002.19.172.209 1.997.209 2.531 0 4.814.173 6.451.489 2.719.523 5.817 1.81 8.286 3.442 1.343.887 3.618 2.964 4.504 4.113.906 1.173 1.888 1.605 2.793 1.227.242-.102.695-.47 1.006-.818 1.236-1.384 3.505-3.535 4.4-4.172 1.41-1.003 2.873-1.802 4.798-2.619 2.378-1.01 3.253-1.018 3.253-.03 0 .604-.435.934-1.78 1.35-2.805.866-5.424 2.541-7.772 4.97-2.443 2.527-2.575 2.646-3.176 2.86l-.585.207V60.6c0 1.829-.008 1.892-.29 2.191-.283.303-.656.39-.916.217zM12.432 62.772c-.453-.457-1.626-2.384-2.244-3.685-.605-1.275-.68-1.948-.252-2.248.647-.453 1.001-.17 1.802 1.434.52 1.043.739 1.43 1.679 2.97.497.814.532 1.103.185 1.543-.323.41-.755.406-1.17-.014z" style="fill:#e793be;fill-opacity:1;stroke-width:.119396" transform="scale(.26458)"/><path d="M32.109 62.911c-.122-.146-.19-.688-.237-1.903-.074-1.912-.15-2.12-.957-2.63-.265-.166-1.461-1.254-2.66-2.417-2.454-2.382-3.006-2.83-4.615-3.75-2.649-1.515-5.395-2.388-8.536-2.713-1.173-.122-5.246-.084-5.582.052-.238.096-.27.563-.088 1.312.254 1.046.463 2.603.395 2.942-.097.487-.548.778-.933.603-.405-.185-.606-.638-.916-2.065-.248-1.145-.27-1.544-.272-5.18-.003-4.355-.008-4.32 1.024-8.18.737-2.76 3.36-10.898 3.682-11.428.336-.552.8-.64 1.161-.22.344.4.325.54-.402 2.873-1.851 5.95-1.88 6.072-1.502 6.182.115.033 1.068.331 2.12.662 1.05.33 2.5.768 3.223.972 2.033.574 2.268.679 2.506 1.12.263.489.11.858-.4.97-.553.122-1.365-.095-6.786-1.812-.735-.233-1.408-.396-1.496-.362-.092.035-.348.816-.604 1.84-.414 1.658-.768 4.108-.988 6.855l-.082 1.026 2.73.078c2.999.085 4.444.218 6.075.556 3.099.642 6.755 2.347 9.123 4.255 1.142.92 2.741 2.467 3.394 3.284.794.992 1.727 1.45 2.54 1.245.196-.049 1.182-.92 2.484-2.194 2.977-2.914 3.897-3.59 6.727-4.938 2.335-1.113 3.7-1.496 4.202-1.18.1.064.173.296.173.552 0 .603-.352.86-1.945 1.42-3.063 1.077-4.796 2.239-7.953 5.328-1.795 1.757-2.387 2.266-2.836 2.435l-.567.214v1.881c0 1.618-.029 1.916-.209 2.128-.297.351-.781.442-.993.187z" style="fill:#e793be;fill-opacity:1;stroke-width:.119396" transform="scale(.26458)"/><path d="M51.722 62.838c-.304-.304-.118-.87.986-2.996.622-1.197 1.352-2.767 1.624-3.488.584-1.55 1.5-5.061 1.616-6.19l.081-.794-.673-.015c-.37-.008-.727-.028-.792-.045-.066-.016-1.302-.036-2.746-.044l-2.627-.015v-.345c0-.925.657-1.088 4.37-1.088h2.665l-.06-.806c-.266-3.522-1.039-7.802-1.553-8.596-.296-.457-.773-.408-3.392.349-8.25 2.382-12.318 2.949-20.156 2.808-6.684-.12-9.184-.555-8.933-1.553.112-.447.4-.485 2.429-.32 2.594.211 11.68.296 13.712.127 3.83-.318 8.3-1.227 12.618-2.568 2.715-.843 2.902-.926 2.864-1.268-.018-.16-.378-1.393-.802-2.74-1.28-4.073-1.593-5.583-1.23-5.945.163-.164.56-.186.786-.042.213.135.703 1.483 1.807 4.973 2.825 8.932 3.147 10.44 3.135 14.685-.008 2.692-.21 5.04-.563 6.565-.742 3.2-2.685 7.449-4.052 8.86-.624.645-.857.747-1.114.49z" style="fill:#e793be;fill-opacity:1;stroke-width:.119396" transform="scale(.26458)"/></g></svg>