<svg xmlns="http://www.w3.org/2000/svg" width="70" height="54" fill="none"><path fill="#E68DBA" stroke="#E68DBA" d="M3.29 5.405c-.563 0-1.003.464-1.003 1.002v44.055a.991.991 0 0 0 1.002 1.002h57.452v-7.236c0-.318.245-.563.563-.563h6.967V6.407c0-.538-.465-1.002-1.002-1.002h-3.545v2.25c0 .806-.66 1.442-1.443 1.442H59.52a1.445 1.445 0 0 1-1.443-1.443V5.405h-7.163v2.25c0 .806-.66 1.442-1.442 1.442h-2.763a1.43 1.43 0 0 1-1.442-1.443V5.405h-7.163v2.25c0 .806-.66 1.442-1.443 1.442h-2.762a1.43 1.43 0 0 1-1.443-1.443V5.405h-7.163v2.25c0 .806-.66 1.442-1.442 1.442h-2.763a1.43 1.43 0 0 1-1.442-1.443V5.405h-7.188v2.25c0 .806-.635 1.442-1.418 1.442H8.277a1.43 1.43 0 0 1-1.443-1.443V5.405H3.29Zm58.014 47.184H3.288a2.128 2.128 0 0 1-2.127-2.127V6.407c0-1.173.954-2.127 2.127-2.127h4.108c.293 0 .537.245.537.563v2.811c0 .196.147.318.343.318h2.762c.171 0 .294-.147.294-.318V4.843c0-.318.268-.563.562-.563h8.312c.293 0 .562.245.562.563v2.811c0 .171.147.318.318.318h2.763a.324.324 0 0 0 .318-.318V4.843c0-.318.244-.563.562-.563h8.288c.317 0 .562.245.562.563v2.811c0 .171.147.318.318.318h2.762a.308.308 0 0 0 .318-.318V4.843c0-.318.245-.563.562-.563h8.288c.318 0 .562.245.562.563v2.811c0 .171.147.318.318.318h2.763a.324.324 0 0 0 .318-.318V4.843c0-.318.244-.563.562-.563h8.288c.317 0 .562.245.562.563v2.811c0 .196.147.318.318.318h2.762a.324.324 0 0 0 .318-.318V4.843c0-.318.245-.563.563-.563h4.107c1.173 0 2.127.954 2.127 2.127v37.82a.569.569 0 0 1-.563.563h-6.967v7.236a.569.569 0 0 1-.563.563Z"/><path fill="#E68DBA" stroke="#E68DBA" d="M68.833 15.624H1.725a.553.553 0 0 1-.563-.562c0-.318.245-.563.563-.563h67.108c.294 0 .563.245.563.563a.569.569 0 0 1-.563.562ZM8.277 1.689a.334.334 0 0 0-.343.342v5.623c0 .196.147.318.343.318h2.762c.171 0 .294-.147.294-.318V2.031c0-.195-.123-.342-.294-.342H8.277Zm2.762 7.408H8.277a1.43 1.43 0 0 1-1.443-1.443V2.031A1.43 1.43 0 0 1 8.277.59h2.762c.783 0 1.418.635 1.418 1.442v5.623c0 .807-.635 1.443-1.418 1.443ZM21.087 1.689c-.171 0-.318.147-.318.342v5.623c0 .171.147.318.318.318h2.763a.324.324 0 0 0 .317-.318V2.031c0-.195-.146-.342-.317-.342h-2.763Zm2.763 7.408h-2.763a1.43 1.43 0 0 1-1.442-1.443V2.031A1.43 1.43 0 0 1 21.087.59h2.763c.782 0 1.442.635 1.442 1.442v5.623c0 .807-.66 1.443-1.442 1.443ZM33.898 1.689c-.171 0-.318.147-.318.342v5.623c0 .171.147.318.318.318h2.762a.308.308 0 0 0 .318-.318V2.031c0-.195-.147-.342-.318-.342h-2.762Zm2.762 7.408h-2.762a1.43 1.43 0 0 1-1.443-1.443V2.031A1.43 1.43 0 0 1 33.898.59h2.762c.783 0 1.443.635 1.443 1.442v5.623c0 .807-.66 1.443-1.443 1.443ZM46.708 1.689c-.17 0-.318.147-.318.342v5.623c0 .171.147.318.318.318h2.763a.324.324 0 0 0 .318-.318V2.031c0-.195-.147-.342-.318-.342h-2.763Zm2.763 7.408h-2.763a1.43 1.43 0 0 1-1.442-1.443V2.031A1.43 1.43 0 0 1 46.708.59h2.763c.782 0 1.442.635 1.442 1.442v5.623c0 .807-.66 1.443-1.442 1.443ZM59.519 1.689c-.171 0-.318.147-.318.342v5.623c0 .196.147.318.318.318h2.762a.324.324 0 0 0 .318-.318V2.031c0-.195-.147-.342-.318-.342H59.52Zm2.762 7.408H59.52a1.445 1.445 0 0 1-1.443-1.443V2.031c0-.807.66-1.442 1.443-1.442h2.762c.783 0 1.443.635 1.443 1.442v5.623c0 .807-.66 1.443-1.443 1.443ZM61.426 52.442a.472.472 0 0 1-.367-.17c-.244-.197-.244-.563-.024-.783l7.383-7.652a.6.6 0 0 1 .806-.025c.22.22.22.587 0 .807l-7.383 7.652a.694.694 0 0 1-.415.171ZM19.743 25.843H7.934a.569.569 0 0 1-.562-.562c0-.293.269-.562.562-.562h11.809c.317 0 .562.269.562.562a.553.553 0 0 1-.562.562ZM41.183 25.843H29.375a.553.553 0 0 1-.562-.562c0-.293.244-.562.562-.562h11.808c.294 0 .538.269.538.562a.548.548 0 0 1-.538.562ZM62.6 25.843H50.814a.553.553 0 0 1-.562-.562c0-.293.245-.562.563-.562h11.783c.318 0 .563.269.563.562a.553.553 0 0 1-.563.562ZM19.743 34.106H7.934a.569.569 0 0 1-.562-.562c0-.318.269-.562.562-.562h11.809c.317 0 .562.244.562.562a.553.553 0 0 1-.562.562ZM41.183 34.106H29.375a.553.553 0 0 1-.562-.562c0-.318.244-.562.562-.562h11.808c.294 0 .538.244.538.562a.548.548 0 0 1-.538.562ZM62.6 34.106H50.814a.553.553 0 0 1-.562-.562c0-.318.245-.562.563-.562h11.783c.318 0 .563.244.563.562a.553.553 0 0 1-.563.562ZM19.743 42.37H7.934a.586.586 0 0 1-.562-.563c0-.317.269-.562.562-.562h11.809c.317 0 .562.245.562.562a.569.569 0 0 1-.562.563ZM41.183 42.37H29.375a.569.569 0 0 1-.562-.563c0-.317.244-.562.562-.562h11.808c.294 0 .538.245.538.562 0 .294-.244.563-.538.563ZM62.6 42.37H50.814a.569.569 0 0 1-.562-.563c0-.317.245-.562.563-.562h11.783c.318 0 .563.245.563.562a.569.569 0 0 1-.563.563Z"/></svg>