<svg xmlns="http://www.w3.org/2000/svg" width="65" height="65" viewBox="0 0 17.198 17.198"><path d="M13.003.916c-.49.089-.443.656-.75.93-.091.081-.226.082-.34.099-.308.045-.66.041-.815.366-.183.381.153.687.398.93.07.07.176.142.22.233.046.092-.003.217-.02.311-.043.25-.14.566-.005.802.242.42.726.232 1.055.054.113-.061.248-.175.385-.155.103.015.198.092.288.14.235.124.462.256.738.207a.479.479 0 0 0 .19-.076c.33-.231.204-.644.149-.972-.015-.088-.05-.199-.026-.288.031-.114.148-.187.232-.262.202-.184.452-.401.444-.7a.609.609 0 0 0-.036-.192c-.192-.52-.791-.232-1.139-.476-.104-.073-.152-.216-.207-.325-.157-.315-.337-.704-.761-.626m.07.457c.137-.037.214.208.258.297.109.217.205.517.441.627.205.096.484.08.705.12.07.012.204.03.204.126 0 .098-.11.185-.172.249-.158.16-.438.35-.499.577-.061.228.061.54.096.77.012.084.036.234-.082.256-.084.015-.181-.053-.252-.089-.184-.092-.376-.238-.577-.286-.25-.06-.494.148-.705.254-.091.046-.298.197-.384.077-.06-.083-.018-.218-.003-.31.034-.206.147-.502.066-.704-.092-.23-.346-.403-.512-.577-.058-.06-.186-.175-.126-.27.053-.085.23-.08.318-.092.229-.033.522-.025.702-.19.165-.153.248-.405.348-.602.038-.076.081-.208.173-.233M8.515 3.835c-.47.11-.406.665-.718.925-.082.069-.207.075-.308.091-.314.052-.688.044-.847.377-.18.376.148.693.398.927.074.069.178.133.221.228.046.103-.002.247-.022.352-.05.257-.14.564.021.8.252.37.685.211.998.033.118-.067.275-.184.417-.165.39.051.623.445 1.058.345a.45.45 0 0 0 .19-.096c.273-.23.19-.58.13-.885-.02-.105-.069-.247-.039-.352.031-.11.154-.184.232-.259.207-.198.469-.42.443-.736a.574.574 0 0 0-.063-.224c-.16-.292-.505-.302-.797-.344-.11-.016-.25-.016-.34-.092-.326-.272-.255-.876-.782-.936a.562.562 0 0 0-.192.01m.102.456c.143-.038.228.236.275.329.105.21.195.484.424.588.208.094.482.086.705.121.075.012.205.029.205.129s-.11.187-.173.252c-.16.163-.43.348-.494.577-.064.231.064.537.096.77.012.084.029.235-.087.256-.094.017-.207-.067-.284-.11-.169-.095-.354-.22-.545-.265-.246-.059-.501.138-.705.25-.089.05-.298.2-.384.08-.06-.082-.018-.217-.003-.308.036-.218.159-.527.056-.737-.103-.213-.34-.377-.502-.545-.057-.06-.186-.175-.126-.27.054-.085.231-.079.318-.092.224-.033.527-.031.702-.19.166-.152.249-.405.348-.602.038-.076.081-.208.174-.233m2.975 10.394H10.15V9.523c0-.166.037-.387-.024-.544-.102-.263-.39-.225-.617-.225h-1.7c-.214 0-.48-.046-.617.162-.087.133-.055.328-.055.48v5.288H5.694v-2.5c0-.26.092-.724-.135-.909-.139-.113-.34-.085-.506-.085H3.258c-.128 0-.267-.014-.383.05-.32.178-.194.798-.194 1.104 0 .135-.024.303.1.393.151.108.305-.012.338-.169.06-.289.01-.634.01-.929h2.116v3.045H3.13c0-.337.03-.69-.004-1.025-.013-.134-.095-.285-.252-.264-.152.02-.189.167-.193.296-.01.33 0 .663 0 .993h-.962c-.165 0-.359-.025-.512.05a.394.394 0 0 0-.193.207c-.04.1-.032.214-.032.32 0 .26-.074.638.162.817.23.174.718.08.992.08h13.527c.124 0 .267.018.385-.028a.4.4 0 0 0 .228-.228c.038-.1.028-.215.028-.32 0-.257.074-.637-.163-.811-.146-.107-.34-.087-.51-.087h-1.026V7.183c0-.305.027-.625-.003-.93-.045-.456-.6-.352-.926-.352-.149 0-.36-.037-.461.101-.097.132-.001.294.14.334.239.067.555.014.802.014v8.334H12.04V6.35c.12 0 .273.023.381-.038a.21.21 0 0 0 0-.373c-.233-.132-.72-.058-.809.219-.052.165-.02.373-.02.544v7.982M4.058 6.56c-.462.112-.414.666-.717.927-.092.079-.227.078-.34.096-.3.046-.66.056-.81.37-.183.386.141.684.393.93.07.07.177.139.22.23.044.093.001.22-.015.315-.042.253-.146.564-.006.801.253.43.71.239 1.05.055.115-.062.248-.173.386-.155.387.05.62.445 1.057.344a.466.466 0 0 0 .191-.096c.285-.233.18-.605.127-.917-.015-.089-.054-.198-.033-.288.028-.118.147-.207.228-.289.207-.207.464-.415.446-.737a.512.512 0 0 0-.047-.192c-.229-.477-.78-.212-1.13-.447-.104-.07-.152-.214-.206-.323-.162-.324-.351-.73-.794-.624m.102.456c.138-.037.214.207.259.297.115.23.213.534.473.636.205.08.457.072.673.11.07.012.204.03.204.126 0 .11-.135.211-.204.282-.16.16-.42.343-.468.577-.046.222.07.514.102.737.01.075.04.227-.061.258-.08.024-.178-.04-.246-.074-.19-.094-.373-.234-.577-.292-.27-.076-.511.129-.738.244-.09.046-.299.197-.383.077-.058-.083-.013-.22.001-.31.036-.213.159-.531.056-.737-.105-.21-.345-.376-.506-.545-.055-.057-.164-.15-.137-.242.028-.097.217-.1.296-.113.238-.04.547-.025.734-.197.166-.152.249-.404.348-.602.038-.075.082-.207.174-.232M9.7 9.171v5.513H7.585V9.171h2.116m6.155 5.962v.577H1.43v-.577z" style="fill:#e68dba;stroke:none;stroke-width:.0320553;fill-opacity:1"/></svg>