<svg xmlns="http://www.w3.org/2000/svg" width="44.568" height="56.895"><defs><linearGradient id="a" x1=".014" x2="1" y1=".267" y2=".772" gradientUnits="objectBoundingBox"><stop offset="0" stop-color="var(--prv_color)"/><stop offset="1" stop-color="var(--prv_color_two)"/></linearGradient></defs><g fill="#E68DBA" transform="translate(-6.5)"><path d="M37.236 0H6.5v56.895h44.568V13.831Zm.556 3.237L47.83 13.275H37.792ZM8.4 55V1.9h27.5v13.272h13.271V55Z" data-name="Path 27"/><path d="M15.982 16.124h8.534a.95.95 0 0 0 0-1.9h-8.534a.95.95 0 0 0 0 1.9Z" data-name="Path 28"/><path d="M15.982 23.71h4.741a.95.95 0 1 0 0-1.9h-4.741a.95.95 0 0 0 0 1.9Z" data-name="Path 29"/><path d="M30.206 23.71h6.638a.95.95 0 0 0 0-1.9h-6.638a.95.95 0 0 0 0 1.9Z" data-name="Path 30"/><path d="M24.792 22.094a.915.915 0 0 0-.275.664.955.955 0 0 0 .275.673 1 1 0 0 0 .673.275.929.929 0 0 0 .673-.284.958.958 0 0 0 .275-.664.993.993 0 0 0-.275-.673.983.983 0 0 0-1.346.009Z" data-name="Path 31"/><path d="M41.585 23.709a.939.939 0 1 0-.673-.275 1 1 0 0 0 .673.275Z" data-name="Path 32"/><path d="M27.361 29.396h-6.638a.95.95 0 0 0 0 1.9h6.638a.95.95 0 1 0 0-1.9Z" data-name="Path 33"/><path d="M15.982 31.295a1 1 0 0 0 .673-.275.962.962 0 0 0 0-1.347.993.993 0 0 0-1.347 0 .935.935 0 0 0-.275.673.939.939 0 0 0 .948.948Z" data-name="Path 34"/><path d="M18.965 38.088c-2.077 1.081-2.776 3.149-3.031 5.293l-1.178-.986c-.929-.779-2.278.556-1.341 1.342l2.661 2.229a.961.961 0 0 0 1.619-.67c.069-2.054.166-4.5 2.226-5.569 1.084-.565.126-2.199-.956-1.639Z" data-name="Path 35"/><path d="M25.274 41.87c-1.313.3-2.808 1.975-3.732.1-.54-1.094-2.176-.135-1.638.957a3.283 3.283 0 0 0 2.531 1.832 3.167 3.167 0 0 0 1.6-.214c.388-.151 1.837-1.24 2.15-.68.6 1.066 2.234.11 1.638-.957a2.254 2.254 0 0 0-2.549-1.038Z" data-name="Path 36"/><path d="M44.658 32.727a.6.6 0 0 1-.344-.832 2.5 2.5 0 0 0-3.335-3.336.605.605 0 0 1-.833-.344 2.5 2.5 0 0 0-4.717 0 .6.6 0 0 1-.832.344 2.5 2.5 0 0 0-3.336 3.335.608.608 0 0 1 .013.494.6.6 0 0 1-.357.339 2.5 2.5 0 0 0 0 4.717.6.6 0 0 1 .344.832 2.479 2.479 0 0 0 .497 2.844 2.506 2.506 0 0 0 1.293.69v11.684l4.741-4.743 4.741 4.741V41.809a2.507 2.507 0 0 0 1.785-3.533.608.608 0 0 1-.013-.494.6.6 0 0 1 .357-.339 2.5 2.5 0 0 0 0-4.717Zm-6.87 13.345-2.845 2.845V41.56h.025a.66.66 0 0 1 .123.034.643.643 0 0 1 .174.11.589.589 0 0 1 .164.247 2.5 2.5 0 0 0 4.717 0 .589.589 0 0 1 .164-.247.612.612 0 0 1 .174-.11.728.728 0 0 1 .122-.034h.025v7.356Zm6.235-10.415a2.5 2.5 0 0 0-1.422 3.435.58.58 0 0 1-.119.688.593.593 0 0 1-.532.161l-.209-.065a2.242 2.242 0 0 0-.266-.087c-.066-.021-.131-.049-.2-.065a2.576 2.576 0 0 0-.284-.037c-.077-.009-.152-.025-.229-.027a2.646 2.646 0 0 0-.274.021c-.079.008-.158.006-.237.021a2.47 2.47 0 0 0-.493.146c-.042.017-.077.045-.118.064a2.552 2.552 0 0 0-.343.187 2.5 2.5 0 0 0-.354.3c-.012.012-.028.022-.041.035a2.506 2.506 0 0 0-.544.886.606.606 0 0 1-1.142 0 2.5 2.5 0 0 0-.544-.886c-.009-.01-.022-.017-.032-.027a2.52 2.52 0 0 0-.363-.31 2.459 2.459 0 0 0-.33-.179c-.045-.022-.084-.052-.131-.071-.02-.009-.041-.01-.061-.018a2.076 2.076 0 0 0-.768-.159c-.043 0-.085-.012-.128-.012h-.001a2.264 2.264 0 0 0-.993.211l-.215.067a.591.591 0 0 1-.548-.157.58.58 0 0 1-.119-.689 2.5 2.5 0 0 0-1.425-3.439.606.606 0 0 1 0-1.142 2.5 2.5 0 0 0 1.422-3.435.607.607 0 0 1 .809-.808 2.5 2.5 0 0 0 3.433-1.415.606.606 0 0 1 1.142 0 2.5 2.5 0 0 0 3.435 1.422.607.607 0 0 1 .808.809 2.5 2.5 0 0 0 1.422 3.434.606.606 0 0 1 0 1.142Z" data-name="Path 37"/></g></svg>
