<svg xmlns="http://www.w3.org/2000/svg" width="65" height="65" viewBox="0 0 17.198 17.198"><path d="M1.192 8.023c.343 0 .725.048 1.064-.006.136-.021.249-.132.235-.278-.013-.129-.116-.195-.235-.21-.243-.027-.5-.001-.745-.003-.093 0-.224.011-.281-.082-.048-.078-.012-.188-.006-.273.016-.215.046-.425.083-.638.168-.967.607-1.913 1.194-2.695a6.665 6.665 0 0 1 3.62-2.443c.369-.097.893-.265 1.276-.2.135.023.141.154.143.266.005.235-.103.784.284.74.134-.016.195-.117.21-.243.028-.254.003-.524.003-.78 2.477.05 4.752 1.678 5.77 3.9.227.497.378 1.027.479 1.561.044.233.033.485.1.71-.225-.158-.41-.374-.603-.568-.151-.15-.325-.397-.532-.47a.258.258 0 0 0-.328.328c.064.182.266.33.398.462l.852.85c.122.123.271.327.46.331.206.005.367-.2.497-.33l.887-.887c.13-.13.318-.274.365-.461.05-.195-.144-.358-.33-.292-.207.072-.38.318-.532.47-.205.204-.4.435-.638.602 0-.833-.23-1.686-.558-2.447-.299-.693-.702-1.36-1.219-1.915-.67-.72-1.44-1.316-2.337-1.727C8.19.112 5.052.603 2.965 2.522c-.574.529-1.085 1.15-1.445 1.848a7.571 7.571 0 0 0-.859 3.156c-.1 2.289 1.011 4.574 2.836 5.945a7.17 7.17 0 0 0 3.157 1.334c.272.045.612.115.886.078.12-.016.228-.103.237-.229.025-.344-.474-.305-.698-.322-.865-.063-1.772-.377-2.518-.813-1.939-1.132-3.322-3.214-3.369-5.496m9.86-3.84c-.27.098-.511.45-.71.648l-1.49 1.49-.496.496c-.08.08-.166.183-.284.203-.091.015-.19-.022-.283-.024-.115-.002-.247.052-.355 0-.137-.064-.25-.216-.355-.321l-.638-.638c-.156-.156-.452-.546-.694-.304-.282.282.308.698.481.871.239.239.624.507.783.806.074.139-.02.38.016.542.098.45.574.71 1.01.563a.753.753 0 0 0 .529-.67c.013-.174-.068-.345.047-.496.227-.297.543-.552.807-.816l1.56-1.56c.136-.136.368-.3.41-.497a.255.255 0 0 0-.338-.293M7.789 7.515c.316 0 .324.494 0 .502-.34.008-.328-.502 0-.502m.567 8.452c.673-.77 1.318-1.566 1.986-2.34.385-.447.89-.902 1.114-1.455.392-.97-.118-2.1-1.114-2.434-1.007-.34-2.119.094-2.597 1.051-.136.272-.303.722-.183 1.027a.242.242 0 0 0 .439.033c.083-.146.06-.366.108-.528.131-.438.44-.81.85-1.015.97-.485 2.334.28 2.074 1.44-.11.49-.547.874-.863 1.242-.596.693-1.19 1.39-1.775 2.092-.22.262-.447.516-.662.78-.097.12-.218.259-.18.426.072.32.635.213.874.213h2.483c.23 0 .734.095.804-.213.093-.41-.5-.319-.733-.319H8.356m6.561-.532v.638c.001.104-.006.22.062.307.125.16.337.107.424-.06.12-.232.046-.629.046-.885.257 0 .653.074.886-.047.167-.087.22-.298.06-.423-.087-.068-.203-.061-.307-.062h-.639v-3.937c0-.307.005-.615 0-.922-.002-.138-.013-.302-.149-.379-.153-.085-.296.013-.391.132-.233.292-.43.617-.645.921a408.84 408.84 0 0 0-2.362 3.37c-.18.26-.368.517-.546.78-.081.12-.173.275-.09.42.14.247.683.147.92.147h2.731m0-4.681v4.149H12.01l.705-1.064 1.266-1.809z" style="fill:#e68dba;stroke:none;stroke-width:.035466;fill-opacity:1"/></svg>