<svg xmlns="http://www.w3.org/2000/svg" width="58.763" height="54.635"><defs><linearGradient id="a" x1=".014" x2="1" y1=".267" y2=".772" gradientUnits="objectBoundingBox"><stop offset="0" stop-color="var(--prv_color)"/><stop offset="1" stop-color="var(--prv_color_two)"/></linearGradient></defs><g fill="#E68DBA" transform="translate(0 -1.826)"><path d="M58.666 18.118c-.858-9.441-7.54-16.291-15.9-16.291a15.808 15.808 0 0 0-13.543 7.8A15.234 15.234 0 0 0 16 1.826C7.638 1.826.955 8.676.1 18.117a16.8 16.8 0 0 0 .5 6.191 26.554 26.554 0 0 0 8.134 13.576l20.472 18.578 20.823-18.577a26.557 26.557 0 0 0 8.136-13.577 16.835 16.835 0 0 0 .501-6.19Zm-2.7 5.672a24.286 24.286 0 0 1-7.449 12.41l-19.3 17.217-18.965-17.208A24.3 24.3 0 0 1 2.8 23.789a14.677 14.677 0 0 1-.47-5.313l.017-.114C3.08 10.091 8.822 4.086 16 4.086a13.247 13.247 0 0 1 12.173 8.493l1.041 2.467 1.041-2.467a13.653 13.653 0 0 1 12.509-8.492c7.177 0 12.921 6 13.67 14.383a14.661 14.661 0 0 1-.469 5.32Z" data-name="Path 98"/><path d="M18.081 8.691a11.314 11.314 0 0 0-11.3 11.305 1.13 1.13 0 0 0 2.26 0 9.052 9.052 0 0 1 9.04-9.041 1.13 1.13 0 1 0 0-2.26Z" data-name="Path 99"/></g></svg>
