<svg xmlns="http://www.w3.org/2000/svg" width="65" height="65" viewBox="0 0 17.198 17.198"><g style="display:inline"><path d="M45.822 34.325c-.517.782-.956 1.615-1.455 2.408-.127.2-.535.742-.087.847.183.043.425-.065.602-.109.452-.113.902-.235 1.354-.348.17-.042.546-.214.703-.1.139.099.167.383.21.537.136.476.258.955.393 1.43.063.223.126.666.46.576.179-.048.256-.243.341-.388.193-.329.398-.65.594-.978.25-.417.475-.959.81-1.312.155-.163.388-.174.59-.247.473-.172.983-.542 1.504-.507.482.033.948.34 1.392.508.177.066.412.077.55.214.313.31.519.818.744 1.193.211.352.432.699.635 1.054.09.156.186.393.368.46.327.121.411-.32.471-.535.14-.501.285-1.002.416-1.505.038-.144.068-.445.213-.522.158-.086.502.072.666.113.478.12.953.25 1.43.376.173.045.423.152.6.08.37-.15-.027-.649-.141-.837-.474-.78-1.076-1.57-1.437-2.408 1.191-.567.321-1.783.588-2.709.216-.748 1.16-1.078 1.342-1.88.247-1.09-1.088-1.487-1.342-2.37-.219-.76.387-1.616-.129-2.333-.53-.736-1.582-.426-2.265-.864-.714-.458-.777-1.567-1.618-1.879-.9-.333-1.596.49-2.445.557-.85.069-1.532-.753-2.408-.624-.96.141-1.082 1.264-1.694 1.825-.637.582-1.75.211-2.356.876-.617.677-.029 1.6-.194 2.366-.175.81-1.19 1.153-1.368 1.994-.211.996.95 1.455 1.308 2.22.41.874-.642 2.33.655 2.821m3.762-11.574c.727-.112 1.43.643 2.182.643.517 0 1.006-.271 1.467-.473.253-.11.596-.252.866-.124.722.345.807 1.404 1.504 1.819.589.35 1.747.17 2.156.757.408.585-.15 1.581.09 2.256.172.483.607.842.95 1.204.18.188.402.473.351.752-.14.767-1.119 1.114-1.33 1.881-.143.518.034 1.02.04 1.542.003.226.03.487-.128.67-.499.582-1.618.336-2.242.784-.421.302-.633.83-.904 1.255-.14.219-.325.475-.6.519-.763.12-1.447-.63-2.22-.63-.499 0-.986.258-1.43.458-.273.124-.646.272-.94.125-.7-.35-.773-1.399-1.467-1.8-.587-.34-1.744-.174-2.156-.745-.13-.18-.102-.425-.101-.636.002-.541.204-1.085.017-1.617-.189-.535-.67-.858-1.016-1.28-.148-.18-.34-.426-.297-.677.13-.776 1.139-1.138 1.342-1.918.164-.626-.346-1.658.081-2.18.494-.604 1.652-.349 2.28-.82.56-.421.75-1.649 1.505-1.765m1.806 2.11c-1.15.15-2.23.512-3.085 1.34-.403.39-.756.877-.983 1.39-1.472 3.329 1.398 6.963 4.97 6.535.836-.1 1.638-.376 2.333-.855a4.685 4.685 0 0 0 1.203-1.203c1.848-2.677.246-6.298-2.82-7.068-.514-.129-1.09-.209-1.618-.14m-.038.522c3.46-.414 5.98 3.537 3.987 6.423a4.228 4.228 0 0 1-1.24 1.163 4.48 4.48 0 0 1-1.844.632c-3.38.404-6.043-3.314-4.16-6.272.334-.524.785-.94 1.301-1.28.588-.386 1.262-.583 1.956-.666m3.123 2.24c-.28.01-.604.424-.79.609-.591.588-1.216 1.141-1.806 1.73-.176.176-.522.667-.79.68-.17.007-.345-.235-.452-.341-.358-.358-.732-.697-1.09-1.054-.15-.148-.433-.463-.666-.273-.266.218.105.54.252.687.438.439.894.87 1.354 1.286.166.15.353.437.602.437.339 0 .79-.595 1.016-.82.818-.818 1.731-1.561 2.512-2.414.162-.177.183-.54-.142-.527m-6.47 10.954c-.213-.492-.331-1.061-.466-1.58-.054-.207-.091-.529-.326-.61-.175-.06-.429.055-.6.097-.466.117-1.184.464-1.656.363.22-.601.686-1.181 1.016-1.73.098-.166.225-.51.417-.579.147-.052.374.035.523.06.94.165 1.149.773 1.637 1.496.113.167.563.46.571.643.007.154-.176.36-.252.486-.252.42-.491 1.036-.865 1.354m10.571-1.693c-.532-.023-1.104-.243-1.617-.382-.185-.05-.49-.2-.676-.105-.203.103-.235.404-.292.6-.149.52-.248 1.083-.462 1.58-.376-.311-.622-.936-.873-1.354-.075-.126-.258-.331-.246-.486.014-.182.43-.444.542-.605.498-.72.697-1.332 1.63-1.52.154-.03.404-.125.557-.072.179.063.32.422.414.576.333.548.83 1.157 1.023 1.768z" style="fill:#e795bf;stroke:none;stroke-width:.03762;fill-opacity:1" transform="matrix(.91367 0 0 .91367 -38.616 -19.522)"/></g></svg>