<svg xmlns="http://www.w3.org/2000/svg" width="52" height="52" ><defs><linearGradient id="a" x1=".014" x2="1" y1=".267" y2=".772" gradientUnits="objectBoundingBox"><stop offset="0" stop-color="var(--prv_color)"/><stop offset="1" stop-color="var(--prv_color_two)"/></linearGradient></defs><g data-name="Group 363"><g data-name="Group 362"><path fill="#E68DBA" d="m51.321.678-.007-.007A2.329 2.329 0 0 0 49.686 0a2.311 2.311 0 0 0-1.441.506 795.002 795.002 0 0 0-16.5 13.55q-1.976 1.668-3.953 3.36L12.752 2.377a3.813 3.813 0 0 0-5.386 0L.223 9.52A.762.762 0 1 0 1.3 10.6l4.989-4.991L7.379 6.7l-4.988 4.988a.762.762 0 0 0 1.077 1.077l4.988-4.988 1.09 1.09-4.988 4.988a.762.762 0 0 0 1.077 1.077l4.988-4.988 1.09 1.09-4.988 4.988A.762.762 0 0 0 7.8 17.1l4.988-4.988 1.09 1.09-4.985 4.987a.762.762 0 0 0 1.077 1.078l4.988-4.988 1.09 1.09-4.988 4.988a.762.762 0 0 0 1.077 1.077l4.988-4.988 1.09 1.09-4.988 4.988A.762.762 0 0 0 14.3 23.6l4.988-4.988 1.09 1.09-4.988 4.988a.762.762 0 0 0 1.077 1.077l4.988-4.988 1.128 1.128q-3.508 3.055-6.966 6.137c-.683.608-1.429 1.308-2.164 1.971a.767.767 0 0 0-.141 1.122 5.09 5.09 0 0 1-.346 6.8l-2.3 2.3A5.327 5.327 0 1 1 11 33.169a.763.763 0 0 0 1.1.085l.011-.01.007-.006a.762.762 0 0 0-.067-1.184 6.844 6.844 0 0 0-5.2-2.385h-.01a6.852 6.852 0 1 0 2.1 13.375A6.855 6.855 0 0 0 15.469 52h.008a6.852 6.852 0 0 0 4.9-11.643l1.555-1.768q4.116-4.581 8.14-9.2l1.148 1.151-4.988 4.988a.762.762 0 0 0 1.077 1.077l4.991-4.988 1.09 1.09L28.4 37.7a.762.762 0 0 0 1.077 1.077l4.988-4.988 1.09 1.09-4.988 4.988a.762.762 0 0 0 1.077 1.077l4.988-4.988 1.09 1.09-4.988 4.984a.762.762 0 0 0 1.077 1.077l4.989-4.988 1.09 1.09L34.9 44.2a.762.762 0 0 0 1.077 1.077l4.988-4.988 1.09 1.09-4.988 4.988a.762.762 0 0 0 1.077 1.077l4.988-4.988 1.09 1.09-4.988 4.988a.762.762 0 0 0 1.077 1.077l4.989-4.99 1.09 1.09L41.4 50.7a.762.762 0 0 0 1.077 1.077l5.526-5.526 1.615-1.615a3.809 3.809 0 0 0 0-5.386L34.567 24.193A775.286 775.286 0 0 0 51.494 3.757a2.311 2.311 0 0 0-.173-3.079ZM7.366 4.532l1.077-1.077a2.288 2.288 0 0 1 3.232 0l14.957 14.957q-1.447 1.243-2.891 2.495Zm41.18 35.793a2.285 2.285 0 0 1 0 3.232l-1.077 1.077L31.075 28.24q1.254-1.443 2.5-2.888ZM21.222 37.1a2.912 2.912 0 0 1-1.517-2.162.762.762 0 0 0-1.513.179 4.152 4.152 0 0 0 1.849 3.011c.054.036.108.072.164.113-.528.6-.964 1.11-1.465 1.663a.763.763 0 0 0 .085 1.1 5.33 5.33 0 1 1-8.684 4.145 5.445 5.445 0 0 1 1.645-3.868l2.26-2.26a6.614 6.614 0 0 0 1.932-4.686 6.513 6.513 0 0 0-1.061-3.584c.6-.545 1.115-1.029 1.717-1.566C33.154 14.455 49 1.8 49.3 1.626c-.2.2-29.924 29.911-30.061 30.066a.762.762 0 1 0 1.14 1.012c.091-.1 29.781-29.783 30-30-.068.108-12.335 15.646-29.157 34.396Z" data-name="Path 101"/></g></g><g data-name="Group 365"><g data-name="Group 364"><path fill="#E68DBA" d="M36.508 323.181a3.806 3.806 0 1 0 0 5.385 3.814 3.814 0 0 0 0-5.385Zm-1.077 4.308a2.284 2.284 0 1 1-1.616-3.9 2.288 2.288 0 0 1 1.616 3.9Z" data-name="Path 102" transform="translate(-26.958 -289.354)"/></g></g><g data-name="Group 367"><g data-name="Group 366"><path fill="#E68DBA" d="M118.631 407.051a3.811 3.811 0 0 0-.031 7.621 3.871 3.871 0 0 0 1.483-.3 3.749 3.749 0 0 0 2.357-3.514 3.813 3.813 0 0 0-3.809-3.807Zm.869 5.914a2.281 2.281 0 1 1-.869-4.391 2.287 2.287 0 0 1 2.285 2.284 2.254 2.254 0 0 1-1.416 2.107Z" data-name="Path 103" transform="translate(-103.157 -365.71)"/></g></g></svg>
